<svg width="14" height="14" viewBox="0 0 14 14" fill="none" xmlns="http://www.w3.org/2000/svg">
<path d="M4.5 0C4.22386 0 4 0.223858 4 0.5C4 0.776142 4.22386 1 4.5 1H11C11.5523 1 12 1.44772 12 2V9.5C12 9.77614 12.2239 10 12.5 10C12.7761 10 13 9.77614 13 9.5V2C13 0.895431 12.1046 0 11 0H4.5Z" fill="#3574F0"/>
<path d="M4 5.5C4 5.22386 4.22386 5 4.5 5H7.5C7.77614 5 8 5.22386 8 5.5C8 5.77614 7.77614 6 7.5 6H4.5C4.22386 6 4 5.77614 4 5.5Z" fill="#3574F0"/>
<path d="M4.5 7C4.22386 7 4 7.22386 4 7.5C4 7.77614 4.22386 8 4.5 8H7.5C7.77614 8 8 7.77614 8 7.5C8 7.22386 7.77614 7 7.5 7H4.5Z" fill="#3574F0"/>
<path d="M4 9.5C4 9.22386 4.22386 9 4.5 9H7.5C7.77614 9 8 9.22386 8 9.5C8 9.77614 7.77614 10 7.5 10H4.5C4.22386 10 4 9.77614 4 9.5Z" fill="#3574F0"/>
<path fill-rule="evenodd" clip-rule="evenodd" d="M3 2C1.89543 2 1 2.89543 1 4V11C1 12.1046 1.89543 13 3 13H9C10.1046 13 11 12.1046 11 11V4C11 2.89543 10.1046 2 9 2H3ZM9 3H3C2.44772 3 2 3.44772 2 4V11C2 11.5523 2.44772 12 3 12H9C9.55228 12 10 11.5523 10 11V4C10 3.44772 9.55229 3 9 3Z" fill="#3574F0"/>
</svg>
